<svg width="320" height="320" viewBox="0 0 320 320" xmlns="http://www.w3.org/2000/svg">
  <rect width="320" height="320" rx="32" fill="#f8fbff"/>
  <rect x="70" y="165" width="180" height="100" rx="22" fill="#ff9fb2"/>
  <rect x="82" y="140" width="156" height="34" rx="14" fill="#60a5fa"/>
  <rect x="92" y="100" width="136" height="44" rx="16" fill="#ffffff" stroke="#93c5fd" stroke-width="4"/>
  <rect x="104" y="72" width="112" height="34" rx="14" fill="#fef08a"/>
  <circle cx="120" cy="92" r="6" fill="#f43f5e"/>
  <circle cx="160" cy="92" r="6" fill="#fb923c"/>
  <circle cx="200" cy="92" r="6" fill="#f59e0b"/>
  <path d="M128 205h64" stroke="#ffffff" stroke-width="8" stroke-linecap="round"/>
  <path d="M110 250c20 18 80 18 100 0" stroke="#93c5fd" stroke-width="8" stroke-linecap="round"/>
  <circle cx="250" cy="88" r="28" fill="#fef3c7"/>
  <path d="M250 60l6 20 20 6-20 6-6 20-6-20-20-6 20-6z" fill="#f59e0b"/>
</svg>
